<svg width="16" height="16" viewBox="0 0 16 16" fill="none" xmlns="http://www.w3.org/2000/svg">
<path d="M8.00016 14.6667C4.31816 14.6667 1.3335 11.682 1.3335 8.00001C1.3335 4.31801 4.31816 1.33334 8.00016 1.33334C11.6822 1.33334 14.6668 4.31801 14.6668 8.00001C14.6668 11.682 11.6822 14.6667 8.00016 14.6667ZM8.00016 13.3333C9.41465 13.3333 10.7712 12.7714 11.7714 11.7712C12.7716 10.7711 13.3335 9.4145 13.3335 8.00001C13.3335 6.58552 12.7716 5.22897 11.7714 4.22877C10.7712 3.22858 9.41465 2.66668 8.00016 2.66668C6.58567 2.66668 5.22912 3.22858 4.22893 4.22877C3.22873 5.22897 2.66683 6.58552 2.66683 8.00001C2.66683 9.4145 3.22873 10.7711 4.22893 11.7712C5.22912 12.7714 6.58567 13.3333 8.00016 13.3333ZM8.00016 4.66668C8.17697 4.66668 8.34654 4.73691 8.47157 4.86194C8.59659 4.98696 8.66683 5.15653 8.66683 5.33334V8.66668C8.66683 8.84349 8.59659 9.01306 8.47157 9.13808C8.34654 9.26311 8.17697 9.33334 8.00016 9.33334C7.82335 9.33334 7.65378 9.26311 7.52876 9.13808C7.40373 9.01306 7.3335 8.84349 7.3335 8.66668V5.33334C7.3335 5.15653 7.40373 4.98696 7.52876 4.86194C7.65378 4.73691 7.82335 4.66668 8.00016 4.66668ZM8.00016 11.3333C7.82335 11.3333 7.65378 11.2631 7.52876 11.1381C7.40373 11.0131 7.3335 10.8435 7.3335 10.6667C7.3335 10.4899 7.40373 10.3203 7.52876 10.1953C7.65378 10.0702 7.82335 10 8.00016 10C8.17697 10 8.34654 10.0702 8.47157 10.1953C8.59659 10.3203 8.66683 10.4899 8.66683 10.6667C8.66683 10.8435 8.59659 11.0131 8.47157 11.1381C8.34654 11.2631 8.17697 11.3333 8.00016 11.3333Z" fill="#F65B2A"/>
</svg>
